<svg width="750" height="500" viewBox="0 0 750 500" fill="none" xmlns="http://www.w3.org/2000/svg">
<path d="M666.947 150.274L657.377 196.618L651.221 190.613L640.738 198.085L632.731 188.144L614.765 201.204L599.422 175.533L582.298 185.561L575.51 176.198L553.769 188.448L547.227 174.445L562.465 100.634L644.17 117.503L666.947 150.274Z" fill="#EBEBEB"/>
<path d="M644.17 117.504L666.949 150.271L638.613 144.421L644.17 117.504Z" fill="#DBDBDB"/>
<path d="M655.342 205.881L641.307 273.876L531.262 251.161L545.192 183.708L551.734 197.71L573.476 185.46L580.264 194.824L597.388 184.796L612.73 210.466L630.697 197.406L638.704 207.347L649.187 199.876L655.342 205.881Z" fill="#EBEBEB"/>
<path d="M497.832 197.913L385.682 204.853L376.773 60.8869L460.044 55.7339L490.621 81.3789L497.832 197.913Z" fill="#EBEBEB"/>
<path d="M460.043 55.7339L490.62 81.3789L461.741 83.1659L460.043 55.7339Z" fill="#DBDBDB"/>
<path d="M428.956 152.597L428.522 149.35C427.39 142.619 429.234 135.092 435.083 127.216C440.355 120.252 443.217 115.184 442.901 109.541C442.543 103.144 438.29 99.104 430.381 99.421C425.865 99.674 420.933 101.46 417.93 104.019L414.477 96.285C418.448 93.043 425.485 90.636 432.132 90.263C446.556 89.455 453.576 97.996 454.11 107.527C454.588 116.057 450.166 122.469 444.546 129.956C439.393 136.787 437.695 142.419 438.43 148.794L438.738 152.048L428.956 152.597ZM427.18 170.311C426.92 165.67 429.873 162.233 434.262 161.987C438.652 161.741 441.845 164.834 442.105 169.475C442.351 173.865 439.656 177.413 435.015 177.673C430.626 177.919 427.426 174.701 427.18 170.311Z" fill="#DBDBDB"/>
<path d="M148.481 128.114L137.195 122.996L135.63 126.452C135.17 127.468 134.173 128.117 133.058 128.166C132.442 128.193 131.826 128.254 131.213 128.347C130.113 128.515 129.011 128.072 128.363 127.168L126.154 124.084L116.077 131.304L118.286 134.387C118.934 135.292 118.999 136.477 118.487 137.465C118.201 138.015 117.946 138.579 117.722 139.154C117.317 140.194 116.382 140.929 115.272 141.038L111.496 141.408L112.713 153.74L116.502 153.363C117.613 153.252 118.664 153.805 119.267 154.745C119.431 155 119.602 155.252 119.779 155.5C119.957 155.748 120.14 155.991 120.329 156.228C121.021 157.097 121.207 158.264 120.749 159.276L119.173 162.757L130.459 167.875L132.031 164.412C132.492 163.396 133.491 162.748 134.606 162.7C135.22 162.674 135.833 162.614 136.444 162.522C137.543 162.356 138.643 162.798 139.291 163.702L141.501 166.787L151.578 159.567L149.368 156.482C148.721 155.578 148.655 154.394 149.166 153.407C149.45 152.859 149.703 152.297 149.925 151.724C150.329 150.684 151.263 149.947 152.374 149.837L156.158 149.462L154.941 137.13L151.155 137.504C150.048 137.613 149 137.062 148.399 136.125C148.234 135.869 148.062 135.615 147.883 135.364C147.705 135.116 147.522 134.873 147.333 134.636C146.637 133.763 146.451 132.59 146.912 131.573L148.481 128.114ZM142.079 139.523C145.344 144.08 144.297 150.415 139.741 153.68C135.184 156.945 128.841 155.904 125.576 151.347C122.311 146.79 123.36 140.441 127.917 137.176C132.473 133.912 138.814 134.967 142.079 139.523Z" fill="#EBEBEB"/>
<path d="M658.385 291.713L650.865 296.052L652.195 298.353C652.586 299.03 652.549 299.862 652.122 300.517C651.886 300.879 651.669 301.254 651.472 301.641C651.119 302.336 650.417 302.783 649.638 302.783H646.98V311.467H649.638C650.417 311.467 651.119 311.914 651.472 312.609C651.669 312.996 651.886 313.371 652.122 313.733C652.549 314.388 652.587 315.22 652.195 315.897L650.865 318.198L658.385 322.537L659.716 320.225C660.106 319.547 660.85 319.174 661.631 319.214C661.843 319.225 662.056 319.23 662.27 319.23C662.484 319.23 662.697 319.225 662.909 319.214C663.687 319.174 664.427 319.544 664.816 320.218L666.155 322.536L673.674 318.197L672.343 315.889C671.952 315.212 671.991 314.379 672.419 313.725C672.654 313.365 672.871 312.991 673.067 312.606C673.421 311.912 674.122 311.466 674.901 311.466H677.559V302.782H674.901C674.122 302.782 673.421 302.336 673.067 301.642C672.871 301.257 672.654 300.883 672.419 300.523C671.991 299.868 671.953 299.036 672.343 298.358L673.674 296.05L666.155 291.711L664.823 294.02C664.433 294.695 663.692 295.067 662.913 295.027C662.7 295.016 662.486 295.011 662.269 295.011C662.055 295.011 661.842 295.016 661.63 295.027C660.849 295.067 660.105 294.694 659.714 294.017L658.385 291.713ZM662.271 300.014C666.198 300.014 669.379 303.195 669.379 307.122C669.379 311.049 666.198 314.237 662.271 314.237C658.344 314.237 655.156 311.049 655.156 307.122C655.156 303.195 658.343 300.014 662.271 300.014Z" fill="#EBEBEB"/>
<path d="M171.302 91.1627L164.406 96.4357L166.021 98.5457C166.496 99.1667 166.566 99.9967 166.228 100.701C166.04 101.09 165.874 101.49 165.729 101.9C165.469 102.634 164.83 103.168 164.057 103.269L161.422 103.612L162.543 112.224L165.178 111.881C165.951 111.78 166.705 112.133 167.144 112.776C167.389 113.135 167.652 113.479 167.933 113.807C168.441 114.401 168.585 115.222 168.285 115.943L167.264 118.397L175.28 121.729L176.301 119.265C176.601 118.543 177.29 118.077 178.07 118.015C178.282 117.998 178.494 117.976 178.706 117.949C178.918 117.921 179.129 117.889 179.337 117.85C180.103 117.71 180.885 117.982 181.358 118.6L182.985 120.726L189.882 115.453L188.265 113.336C187.79 112.715 187.721 111.884 188.061 111.18C188.248 110.792 188.414 110.394 188.559 109.986C188.82 109.253 189.458 108.72 190.23 108.619L192.866 108.276L191.745 99.6637L189.109 100.007C188.337 100.108 187.584 99.7557 187.144 99.1127C186.9 98.7557 186.637 98.4137 186.357 98.0867C185.848 97.4927 185.702 96.6717 186.002 95.9497L187.024 93.4897L179.007 90.1577L177.984 92.6187C177.685 93.3387 176.997 93.8027 176.22 93.8637C176.008 93.8807 175.794 93.9027 175.579 93.9307C175.367 93.9587 175.156 93.9907 174.947 94.0287C174.177 94.1697 173.392 93.8957 172.916 93.2737L171.302 91.1627ZM176.226 98.8927C180.12 98.3857 183.685 101.13 184.192 105.024C184.699 108.918 181.956 112.49 178.062 112.997C174.168 113.504 170.595 110.754 170.088 106.86C169.581 102.966 172.332 99.3997 176.226 98.8927Z" fill="#EBEBEB"/>
<path d="M119.818 316.783C120.212 307.106 120.054 297.411 119.42 287.748C118.112 267.817 114.831 248.041 110.325 228.594C107.789 217.647 104.665 206.886 101.411 196.136C101.313 195.811 100.795 195.903 100.885 196.241C110.949 234.137 119.206 273.245 118.638 312.637C118.479 323.662 117.203 334.49 116.156 345.445C116.128 345.738 116.61 345.855 116.677 345.554C118.753 336.18 119.428 326.357 119.818 316.783Z" fill="#EBEBEB"/>
<path d="M100.886 196.242C100.886 196.242 85.6397 234.94 89.0527 244.036C92.4667 253.132 99.5037 255.072 99.5037 255.072C99.5037 255.072 90.1757 268.39 96.6937 280.881C103.213 293.372 117.696 292.782 118.658 306.945C118.658 306.945 119.465 247.725 100.886 196.242Z" fill="#EBEBEB"/>
<path d="M117.001 282.492C117.02 282.427 117.015 282.358 116.985 282.289C114.844 255.976 110.176 229.745 102.197 204.442C102.174 204.367 102.051 204.391 102.071 204.469C105.092 215.789 107.78 227.17 110.077 238.613C108.097 236.574 105.507 235.402 102.799 234.555C102.748 234.539 102.723 234.612 102.771 234.633C105.591 235.852 108.292 237.265 110.285 239.654C110.73 241.897 111.166 244.141 111.58 246.388C108.173 242.58 103.448 240.691 98.72 238.895C98.653 238.87 98.618 238.972 98.683 238.999C103.607 241.004 108.512 243.587 111.848 247.83C113.011 254.252 114.029 260.697 114.91 267.161C112.419 264.559 109.345 262.81 105.819 261.951C105.713 261.925 105.654 262.082 105.761 262.113C109.384 263.156 112.5 265.184 114.981 268.019C114.999 268.039 115.018 268.049 115.038 268.062C115.343 270.336 115.631 272.613 115.901 274.893C113.983 273.257 111.863 272.012 109.529 271.049C109.467 271.024 109.434 271.12 109.494 271.146C111.865 272.155 113.998 273.61 115.876 275.37C115.903 275.395 115.93 275.392 115.957 275.402C116.211 277.569 116.464 279.737 116.683 281.909C113.188 277.697 108.866 274.649 103.752 272.676C103.652 272.637 103.601 272.79 103.697 272.832C108.669 274.994 113.052 278.419 116.441 282.638C116.534 282.754 116.655 282.773 116.762 282.739C117.092 286.069 117.387 289.404 117.631 292.746C117.634 292.792 117.709 292.796 117.707 292.75C117.516 289.329 117.277 285.91 117.001 282.492Z" fill="white"/>
<path d="M104.752 230.708C102.108 228.891 98.7476 228.115 95.5916 227.852C95.5156 227.846 95.5096 227.958 95.5836 227.968C98.8666 228.456 101.625 229.644 104.641 230.926C104.772 230.983 104.866 230.787 104.752 230.708Z" fill="white"/>
<path d="M106.603 271.679C104.511 270.423 102.124 269.714 99.727 269.327C99.643 269.314 99.6361 269.443 99.7181 269.457C102.152 269.898 104.308 270.764 106.52 271.842C106.614 271.889 106.692 271.733 106.603 271.679Z" fill="white"/>
<path d="M159.901 244.667C153.543 249.137 147.441 254.292 142.255 260.092C136.727 266.274 132.695 273.292 129.879 281.08C124.11 297.035 120.948 314.319 120.66 331.276C120.498 340.782 121.344 350.214 123.378 359.505C123.452 359.843 123.957 359.747 123.906 359.406C121.42 343.059 121.511 326.378 124.182 310.062C126.803 294.053 130.916 276.636 141.092 263.626C146.633 256.542 153.542 250.968 160.372 245.208C160.729 244.905 160.27 244.407 159.901 244.667Z" fill="#EBEBEB"/>
<path d="M122.902 319.749C122.902 319.749 128.138 310.931 135.765 303.306C143.392 295.681 149.816 290.262 150.807 285.219C151.799 280.176 143.167 276.462 143.167 276.462C143.167 276.462 153.722 278.357 156.61 273.927C159.498 269.498 160.892 243.842 160.892 243.842C160.892 243.842 141.691 257.551 132.744 276.768C123.798 295.985 122.902 319.749 122.902 319.749Z" fill="#EBEBEB"/>
<path d="M154.247 250.42C146.168 258.355 138.037 266.811 133.279 277.236C131.648 280.81 130.26 284.517 129.038 288.293C129.035 288.299 129.035 288.305 129.032 288.31C128.787 289.068 128.538 289.825 128.307 290.588C128.284 290.626 128.272 290.668 128.268 290.713C125.916 298.499 124.253 306.55 122.813 314.415C122.804 314.466 122.881 314.493 122.891 314.44C123.718 310.437 124.631 306.395 125.65 302.365C125.686 302.366 125.725 302.359 125.765 302.342C127.398 301.656 129.041 301.226 130.804 301.063C130.919 301.053 130.91 300.853 130.793 300.859C129.092 300.941 127.426 301.239 125.809 301.768C126.739 298.134 127.75 294.51 128.887 290.939C132.594 290.031 136.463 289.541 140.275 289.45C140.314 289.449 140.321 289.39 140.28 289.388C136.437 289.209 132.825 289.54 129.082 290.339C129.28 289.726 129.486 289.117 129.691 288.506C132.194 287.936 134.708 287.456 137.269 287.222C137.315 287.218 137.311 287.139 137.265 287.14C134.757 287.208 132.285 287.471 129.845 288.042C130.89 284.951 132.019 281.903 133.271 278.934C134.307 276.478 135.539 274.146 136.896 271.895C138.949 271.43 140.939 270.988 143.043 270.799C143.101 270.794 143.095 270.701 143.038 270.697C141.128 270.573 139.139 270.716 137.291 271.265C138.301 269.634 139.362 268.036 140.498 266.488C144.804 265.534 149.169 264.649 153.574 265.476C153.65 265.49 153.678 265.362 153.603 265.343C149.41 264.24 145.248 264.877 141.076 265.702C141.531 265.096 141.997 264.498 142.467 263.903C145.11 263.086 147.739 262.69 150.512 262.639C150.569 262.638 150.578 262.556 150.519 262.55C147.988 262.308 145.464 262.553 143.018 263.216C146.578 258.793 150.51 254.639 154.397 250.531C154.579 250.343 154.439 250.232 154.247 250.42Z" fill="white"/>
<path d="M154.034 267.908C152.77 267.773 151.485 267.632 150.215 267.775C150.061 267.792 150.074 268.043 150.229 268.047C151.493 268.084 152.757 267.99 154.021 268.058C154.118 268.064 154.13 267.918 154.034 267.908Z" fill="white"/>
<path d="M140.212 292.796C138.194 292.771 136.179 293.314 134.294 293.984C134.247 294.001 134.273 294.08 134.322 294.068C136.276 293.603 138.253 293.414 140.227 293.088C140.389 293.062 140.381 292.798 140.212 292.796Z" fill="white"/>
<path d="M136.071 284.198C135.252 284.155 134.366 284.299 133.559 284.425C133.476 284.438 133.481 284.573 133.567 284.575C134.383 284.589 135.281 284.611 136.085 284.457C136.227 284.429 136.221 284.206 136.071 284.198Z" fill="white"/>
<path d="M66.6126 271.893C72.7916 274.041 78.9206 276.803 84.4586 280.298C90.3616 284.023 95.2466 288.771 99.3256 294.422C107.682 306.001 114.236 319.258 118.389 332.914C120.717 340.57 122.213 348.398 122.714 356.387C122.732 356.677 122.301 356.717 122.264 356.428C120.497 342.624 116.568 329.146 110.635 316.558C104.814 304.208 97.4596 291.064 86.2166 282.887C80.0946 278.435 73.2156 275.521 66.3566 272.438C65.9976 272.277 66.2536 271.769 66.6126 271.893Z" fill="#EBEBEB"/>
<path d="M113.91 324.104C113.91 324.104 107.634 318.178 99.7001 313.77C91.7651 309.362 85.3141 306.461 83.3461 302.609C81.3781 298.757 87.5051 293.756 87.5051 293.756C87.5051 293.756 79.4011 297.729 76.0401 294.812C72.6791 291.895 65.6211 271.455 65.6211 271.455C65.6211 271.455 84.3291 278.111 96.0101 291.595C107.692 305.08 113.91 324.104 113.91 324.104Z" fill="#EBEBEB"/>
<path d="M112.937 319.888C103.58 302.325 91.0954 286.437 73.9874 275.95C73.9794 275.945 73.9724 275.957 73.9794 275.961C78.4834 278.831 82.6334 282.141 86.5014 285.76C83.0384 285.664 79.5134 286.216 76.4434 287.883C76.3754 287.92 76.4244 288.012 76.4944 287.988C79.9164 286.83 83.2034 286.07 86.8434 286.239C86.8934 286.241 86.9254 286.215 86.9604 286.195C87.5674 286.771 88.1664 287.356 88.7594 287.946C86.9594 288.023 85.1384 288.278 83.3844 288.659C83.3374 288.669 83.3504 288.742 83.3984 288.733C85.2964 288.366 87.1494 288.238 89.0754 288.265C92.2104 291.415 95.1314 294.785 97.8994 298.284C96.6494 298.102 95.3394 298.208 94.1414 298.557C94.0524 298.583 94.0754 298.711 94.1684 298.699C95.5314 298.527 96.8274 298.549 98.1804 298.644C98.6924 299.296 99.2104 299.944 99.7124 300.604C95.8654 300.372 92.0964 300.742 88.3584 301.708C88.3034 301.722 88.3184 301.807 88.3754 301.796C92.2314 301.039 96.1194 300.797 100.037 301.038C100.514 301.671 100.966 302.322 101.434 302.962C99.1394 302.892 96.9134 303.179 94.6754 303.736C94.5904 303.757 94.6144 303.891 94.7014 303.871C97.0034 303.347 99.3444 303.214 101.697 303.326C103.71 306.099 105.638 308.934 107.491 311.803C106.51 311.601 105.48 311.711 104.524 311.981C104.473 311.996 104.487 312.068 104.54 312.062C105.641 311.933 106.669 312.075 107.75 312.214C109.416 314.808 111.027 317.428 112.57 320.063C112.702 320.287 113.061 320.121 112.937 319.888Z" fill="white"/>
<path d="M98.3808 305.32C96.5518 305.163 94.6928 305.45 92.9458 305.985C92.8958 306 92.9078 306.076 92.9618 306.066C94.7608 305.735 96.5438 305.61 98.3668 305.512C98.4858 305.506 98.5088 305.332 98.3808 305.32Z" fill="white"/>
<path d="M82.0626 283.917C81.2356 283.823 80.3726 283.931 79.5556 284.063C79.4586 284.079 79.4886 284.222 79.5846 284.212C80.4086 284.124 81.2216 284.155 82.0466 284.13C82.1806 284.126 82.2026 283.933 82.0626 283.917Z" fill="white"/>
<path d="M138.042 382.18H95.8125L101.834 338.073L103.373 326.764H130.482L132.02 338.073L138.042 382.18Z" fill="#DBDBDB"/>
<path d="M132.018 338.073H101.832L103.371 326.764H130.48L132.018 338.073Z" fill="#C7C7C7"/>
<path d="M134.358 322.841H99.4961V332.419H134.358V322.841Z" fill="#DBDBDB"/>
<path d="M68.9648 382.18L144.974 381.937L220.983 381.849L373.001 381.681L525.019 381.848L601.028 381.936L677.037 382.18L601.028 382.425L525.019 382.513L373.001 382.679L220.983 382.512L144.974 382.423L68.9648 382.18Z" fill="#263238"/>
<path d="M375 456.714C533.363 456.714 661.742 442.647 661.742 425.294C661.742 407.941 533.363 393.874 375 393.874C216.637 393.874 88.2578 407.941 88.2578 425.294C88.2578 442.647 216.637 456.714 375 456.714Z" fill="#EBEBEB"/>
<path d="M308.249 420.087C305.918 420.876 239.104 421.111 236.55 419.51C235.578 418.908 234.977 409.179 234.583 397.403C234.498 394.86 234.425 392.234 234.367 389.566L228.949 353.93L273.614 353.644L277.83 389.288L277.659 397.128C277.659 397.128 303.28 408.48 305.892 410.537C308.492 412.593 310.581 419.298 308.249 420.087Z" fill="#EB9481"/>
<path d="M308.249 420.087C305.918 420.876 239.104 421.111 236.55 419.51C235.37 418.771 234.726 404.563 234.367 389.566L277.83 389.287L277.659 397.127C277.659 397.127 303.28 408.479 305.892 410.536C308.492 412.593 310.581 419.298 308.249 420.087Z" fill="white"/>
<path d="M308.248 420.087C305.917 420.876 239.103 421.111 236.549 419.51C235.577 418.908 234.976 409.179 234.582 397.403L277.658 397.127C277.658 397.127 303.279 408.479 305.891 410.536C308.491 412.593 310.58 419.298 308.248 420.087Z" fill="#A6A6A6"/>
<path d="M307.28 417.418C296.079 417.182 250.88 417.289 239.79 417.907C239.7 417.912 239.7 417.973 239.79 417.977C250.887 418.453 296.084 417.981 307.281 417.601C307.517 417.594 307.516 417.423 307.28 417.418Z" fill="#263238"/>
<path d="M301.584 408.147C298.928 408.048 296.336 409.319 294.893 410.906C293.507 412.431 292.324 414.572 292.411 416.895C292.414 416.961 292.537 416.963 292.546 416.894C293.17 412.509 297.143 408.645 301.584 408.288C301.675 408.28 301.675 408.151 301.584 408.147Z" fill="#263238"/>
<path d="M282.005 398.226C277.522 398.18 272.33 399.78 269.557 403.456C269.45 403.598 269.653 403.749 269.786 403.68C273.831 401.577 277.678 400.007 282.083 398.777C282.395 398.691 282.326 398.229 282.005 398.226Z" fill="#263238"/>
<path d="M285.474 399.563C280.991 399.516 275.799 401.117 273.026 404.793C272.919 404.936 273.123 405.086 273.255 405.017C277.3 402.914 281.147 401.344 285.552 400.115C285.863 400.028 285.795 399.566 285.474 399.563Z" fill="#263238"/>
<path d="M288.939 400.9C284.456 400.854 279.264 402.454 276.491 406.13C276.383 406.272 276.588 406.423 276.72 406.354C280.765 404.251 284.612 402.681 289.018 401.452C289.329 401.365 289.26 400.903 288.939 400.9Z" fill="#263238"/>
<path d="M292.403 402.237C287.92 402.19 282.729 403.791 279.956 407.467C279.848 407.609 280.052 407.76 280.185 407.691C284.23 405.588 288.077 404.018 292.482 402.789C292.793 402.701 292.724 402.24 292.403 402.237Z" fill="#263238"/>
<path d="M242.606 407.259C237.577 407.291 237.618 415.108 242.656 415.075C247.685 415.043 247.644 407.227 242.606 407.259Z" fill="#263238"/>
<path d="M286.811 386.247C284.535 384.373 281.683 386.222 280.291 388.181C278.036 391.353 276.495 395.794 276.258 399.659C276.253 399.754 276.325 399.792 276.398 399.787C276.495 400.108 276.875 400.376 277.205 400.146C280.389 397.927 284.068 395.95 286.476 392.82C287.882 390.991 288.963 388.019 286.811 386.247ZM281.344 395.794C279.805 396.923 278.219 397.97 276.722 399.156C277.515 396.919 278.207 394.66 279.225 392.505C279.711 391.477 280.229 390.429 280.852 389.475C281.821 387.991 286.208 384.229 286.671 389.104C286.926 391.793 283.179 394.447 281.344 395.794Z" fill="#263238"/>
<path d="M265.124 401.359C269.029 401.945 273.052 400.819 276.884 400.211C277.282 400.148 277.37 399.691 277.217 399.392C277.274 399.345 277.3 399.267 277.23 399.203C274.38 396.582 270.19 394.45 266.366 393.728C264.005 393.282 260.668 393.927 260.326 396.855C260.004 399.625 262.844 401.017 265.124 401.359ZM262.408 398.817C259.361 394.982 265.131 394.652 266.858 395.05C267.968 395.306 269.068 395.701 270.131 396.105C272.359 396.953 274.424 398.101 276.546 399.163C274.645 399.346 272.776 399.691 270.884 399.944C268.629 400.247 264.088 400.932 262.408 398.817Z" fill="#263238"/>
<path d="M163.316 189.203C163.316 189.203 215.186 277.443 216.575 283.638C218.709 293.158 230.022 387.173 230.022 387.173L283.993 386.201C283.993 386.201 274.691 303.31 265.881 276.001C259.535 256.33 213.759 191.092 213.759 191.092L163.316 189.203Z" fill="#37474F"/>
<path d="M279.088 377.926C271.337 377.87 243.871 377.56 233.554 378.523C233.475 378.53 233.478 378.661 233.556 378.672C237.107 379.182 271.343 378.388 279.091 378.139C279.237 378.135 279.234 377.927 279.088 377.926Z" fill="#263238"/>
<path d="M172.172 197.3C175.571 202.631 179.157 207.851 182.632 213.136C186.109 218.423 189.573 223.718 192.992 229.042C199.825 239.683 206.48 250.435 213.013 261.254C216.077 266.328 218.995 271.449 221.099 276.984C223.183 282.466 224.602 288.17 225.652 293.92C226.71 299.713 227.406 305.561 228.064 311.407C228.764 317.632 229.454 323.858 230.149 330.084C231.571 342.823 232.993 355.562 234.415 368.3C234.589 369.863 234.76 371.425 234.917 372.99C234.94 373.219 234.53 373.265 234.501 373.035C232.913 360.377 231.594 347.681 230.151 335.006C229.433 328.696 228.715 322.386 227.997 316.076C227.329 310.209 226.694 304.335 225.784 298.498C224.889 292.765 223.728 287.055 221.983 281.506C220.16 275.708 217.578 270.265 214.521 264.993C208.266 254.206 201.648 243.603 195.027 233.028C188.349 222.362 181.615 211.725 174.631 201.246C173.769 199.952 172.899 198.666 172.005 197.392C171.935 197.292 172.106 197.197 172.172 197.3Z" fill="#263238"/>
<path d="M180.321 425.292C177.86 425.141 114.325 399.398 112.554 396.959C112.495 396.877 112.46 396.717 112.457 396.489C112.469 394.304 116.869 386.657 120.546 376.623C120.776 375.981 122.416 373.004 124.692 368.988C130.948 357.959 142.018 339.066 142.018 339.066L183.547 355.566L163.669 385.322L160.575 392.523C160.575 392.523 180.066 412.666 181.712 415.548C183.348 418.431 182.773 425.431 180.321 425.292Z" fill="#EB9481"/>
<path d="M180.321 425.292C177.86 425.141 114.325 399.398 112.554 396.959C112.495 396.877 112.46 396.717 112.457 396.489C112.469 394.304 116.869 386.657 120.546 376.623C120.776 375.981 122.416 373.004 124.692 368.988L163.67 385.322L160.576 392.523C160.576 392.523 180.067 412.666 181.713 415.548C183.348 418.431 182.773 425.431 180.321 425.292Z" fill="white"/>
<path d="M180.316 425.287C177.859 425.144 114.322 399.398 112.555 396.956C111.88 396.033 114.721 387.356 120.541 376.625L160.575 392.529C160.575 392.529 180.066 412.663 181.716 415.55C183.352 418.431 182.773 425.43 180.316 425.287Z" fill="#A6A6A6"/>
<path d="M180.42 422.45C170.126 418.03 128.187 401.173 117.675 397.585C117.59 397.556 117.567 397.613 117.649 397.65C127.757 402.254 169.831 418.771 180.352 422.62C180.574 422.702 180.637 422.543 180.42 422.45Z" fill="#263238"/>
<path d="M178.619 411.72C176.194 410.632 173.315 410.837 171.382 411.767C169.525 412.66 167.625 414.202 166.835 416.387C166.812 416.45 166.926 416.497 166.961 416.437C169.185 412.606 174.317 410.515 178.568 411.85C178.653 411.877 178.703 411.757 178.619 411.72Z" fill="#263238"/>
<path d="M164.19 395.178C160.052 393.453 154.639 392.989 150.689 395.356C150.536 395.448 150.669 395.664 150.818 395.65C155.357 395.218 159.511 395.206 164.056 395.719C164.377 395.755 164.486 395.302 164.19 395.178Z" fill="#263238"/>
<path d="M166.901 397.717C162.763 395.992 157.35 395.528 153.4 397.895C153.247 397.987 153.38 398.203 153.529 398.188C158.067 397.756 162.222 397.744 166.767 398.257C167.088 398.294 167.197 397.841 166.901 397.717Z" fill="#263238"/>
<path d="M169.612 400.257C165.474 398.532 160.061 398.068 156.111 400.435C155.958 400.527 156.091 400.743 156.24 400.729C160.778 400.297 164.933 400.284 169.478 400.798C169.798 400.834 169.908 400.38 169.612 400.257Z" fill="#263238"/>
<path d="M172.322 402.796C168.184 401.071 162.771 400.607 158.822 402.974C158.669 403.066 158.801 403.282 158.951 403.268C163.49 402.836 167.644 402.824 172.189 403.337C172.509 403.373 172.619 402.92 172.322 402.796Z" fill="#263238"/>
<path d="M124.279 388.771C119.605 386.914 116.711 394.175 121.393 396.035C126.068 397.892 128.962 390.631 124.279 388.771Z" fill="#263238"/>
<path d="M173.136 385.875C171.729 383.285 168.392 383.928 166.367 385.222C163.087 387.316 159.992 390.855 158.323 394.348C158.282 394.434 158.335 394.496 158.405 394.519C158.374 394.853 158.626 395.244 159.019 395.155C162.803 394.292 166.955 393.84 170.361 391.842C172.349 390.676 174.466 388.326 173.136 385.875ZM164.487 392.675C162.636 393.144 160.774 393.52 158.941 394.058C160.515 392.282 162.004 390.447 163.756 388.831C164.592 388.06 165.466 387.284 166.401 386.633C167.856 385.62 173.334 383.779 171.934 388.472C171.162 391.06 166.693 392.115 164.487 392.675Z" fill="#263238"/>
<path d="M147.368 391.749C150.768 393.757 154.919 394.223 158.7 395.097C159.092 395.188 159.345 394.798 159.316 394.463C159.386 394.441 159.44 394.378 159.399 394.292C157.74 390.793 154.656 387.246 151.383 385.141C149.361 383.842 146.026 383.188 144.612 385.774C143.273 388.221 145.383 390.577 147.368 391.749ZM145.805 388.374C144.42 383.676 149.892 385.535 151.343 386.552C152.276 387.205 153.147 387.984 153.981 388.758C155.728 390.379 157.212 392.219 158.781 393.999C156.95 393.456 155.089 393.074 153.239 392.599C151.035 392.033 146.568 390.964 145.805 388.374Z" fill="#263238"/>
<path d="M166.876 383.657L120.391 364.886C120.391 364.886 178.027 280.141 178.454 273.834C178.831 268.246 153.516 219.625 152.518 205.455C151.441 190.163 158.805 178.327 166.896 170.982L214.851 191.367C214.851 191.367 209.79 199.464 201.817 203.971C201.817 203.971 226.409 260.172 225.014 277.452C223.612 294.826 166.876 383.657 166.876 383.657Z" fill="#37474F"/>
<path d="M168.939 374.817C162.217 371.927 164.187 372.661 157.432 369.846C154.127 368.468 132.398 359.436 129.09 358.692C129.017 358.676 128.97 358.791 129.034 358.83C131.926 360.601 153.808 369.253 157.139 370.567C163.946 373.252 162.021 372.407 168.858 375.015C168.987 375.063 169.065 374.871 168.939 374.817Z" fill="#263238"/>
<path d="M209.711 202.943C204.715 204.017 199.814 205.782 195.106 207.679C194.921 207.754 195.008 208.028 195.206 207.97C200.108 206.539 205.094 205.202 209.906 203.511C210.284 203.378 210.094 202.86 209.711 202.943Z" fill="#263238"/>
<path d="M204.021 200.969C203.548 201.793 203.147 202.661 202.789 203.538C202.512 204.219 202.156 204.949 202.16 205.692C202.161 205.836 202.355 205.871 202.444 205.783C203.001 205.235 203.297 204.435 203.649 203.752C204.057 202.961 204.483 202.176 204.868 201.373C205.123 200.841 204.312 200.461 204.021 200.969Z" fill="#263238"/>
<path d="M204.602 196.461C204.896 195.723 205.192 194.986 205.502 194.255C205.823 193.498 206.196 192.752 206.458 191.973C206.499 191.85 206.694 191.933 206.645 192.057C206.352 192.796 206.161 193.584 205.926 194.344C205.69 195.107 205.441 195.865 205.189 196.623C204.719 198.034 204.144 199.434 203.538 200.796C204.322 200.786 205.129 200.751 205.842 200.396C206.616 200.01 207.085 199.188 207.466 198.445C207.889 197.62 208.278 196.776 208.713 195.957C209.194 195.051 209.726 194.155 210.043 193.174C210.083 193.05 210.274 193.133 210.23 193.257C209.508 195.282 208.798 197.304 207.675 199.17C207.234 199.903 206.876 200.666 206.063 200.953C205.19 201.261 204.235 201.201 203.326 201.135C203.214 201.166 203.069 201.094 203.108 200.958C203.537 199.449 204.02 197.919 204.602 196.461Z" fill="#263238"/>
<path d="M202.564 205.801C204.268 209.414 205.767 213.014 207.36 216.614C208.917 220.132 210.375 223.691 211.79 227.267C214.65 234.494 217.212 241.852 219.459 249.293C220.571 252.975 221.595 256.683 222.521 260.416C223.449 264.159 224.356 267.94 224.741 271.784C225.127 275.64 224.852 279.453 223.778 283.182C222.688 286.965 221.252 290.269 219.546 293.808C218.504 295.971 218.145 295.679 218.65 294.587C220.081 291.49 223.829 282.102 223.557 274.209C223.426 270.401 222.644 266.651 221.784 262.951C220.906 259.174 219.915 255.424 218.834 251.7C216.704 244.363 214.174 237.171 211.571 229.991C210.113 225.968 208.548 221.986 207.068 217.972C205.577 213.928 204.04 210.289 202.386 205.873C202.342 205.757 202.511 205.689 202.564 205.801Z" fill="#263238"/>
<path d="M167.269 193.867C168.102 193.559 169.257 194.069 170.106 194.211C171.195 194.394 172.296 194.505 173.4 194.543C174.488 194.58 175.585 194.536 176.668 194.43C177.751 194.325 178.856 194.191 179.797 193.603C181.383 192.613 182.711 190.869 183.786 189.367C184.967 187.716 186.193 185.818 186.897 183.906C186.94 183.789 187.109 183.869 187.072 183.984C186.722 185.099 186.462 186.223 186.017 187.312C185.598 188.337 185.057 189.317 184.483 190.261C183.411 192.025 182.181 193.908 180.343 194.957C178.414 196.058 175.929 195.992 173.778 195.868C172.534 195.796 171.295 195.632 170.075 195.375C169.195 195.189 167.714 195.048 167.153 194.275C167.052 194.139 167.105 193.928 167.269 193.867Z" fill="#263238"/>
<path d="M133.659 356.027C141.3 344.464 148.799 332.806 156.163 321.064C163.546 309.291 170.793 297.432 177.939 285.514C179.648 282.664 181.623 279.815 182.724 276.658C183.921 273.226 183.241 269.901 182.157 266.543C180.169 260.384 177.693 254.391 175.02 248.5C172.339 242.592 169.453 236.781 166.613 230.949C163.797 225.164 160.8 219.36 158.664 213.281C156.624 207.474 155.847 201.452 157.413 195.429C158.967 189.453 162.328 184.087 165.838 179.079C166.764 177.758 167.707 176.449 168.636 175.13C168.707 175.03 168.859 175.151 168.785 175.251C164.917 180.472 161.145 185.998 158.877 192.128C157.756 195.157 157.03 198.346 156.959 201.582C156.886 204.865 157.503 208.122 158.47 211.249C160.351 217.329 163.32 223.086 166.086 228.798C168.914 234.637 171.818 240.441 174.545 246.329C177.289 252.253 179.855 258.267 181.964 264.449C182.903 267.201 183.95 270.081 183.888 273.03C183.82 276.26 182.278 279.168 180.682 281.891C173.73 293.747 166.513 305.454 159.207 317.094C151.873 328.779 144.394 340.372 136.799 351.888C135.841 353.34 134.881 354.791 133.92 356.241C133.801 356.418 133.541 356.206 133.659 356.027Z" fill="#263238"/>
<path d="M217.513 137.469C221.841 146.97 243.706 160.062 253.947 161.469C261.315 162.481 283.686 162.829 291.358 161.658C300.343 160.286 293.478 136.028 288.166 136.649C273.567 138.356 261.17 140.256 257.273 140.256C252.515 140.256 226.761 131.99 223.658 130.827C216.063 127.98 215.058 132.08 217.513 137.469Z" fill="#EB9481"/>
<path d="M217.648 139.984C223.127 148.093 241.344 161.349 241.344 161.349L243.872 155.748L252.238 137.233C252.238 137.233 235.509 131.954 224.5 129.602C223.013 129.283 221.702 129.092 220.561 129.041C213.533 128.662 212.923 133.008 217.648 139.984Z" fill="#D9D9D9"/>
<path d="M217.648 139.984C223.127 148.093 241.344 161.349 241.344 161.349L243.872 155.748C237.079 147.863 226.593 135.912 220.561 129.041C213.533 128.662 212.923 133.008 217.648 139.984Z" fill="#263238"/>
<path d="M238.061 157.606C239.449 154.203 245.634 140.473 247.169 137.592C247.276 137.392 247.427 137.408 247.342 137.629C243.427 147.92 239.727 154.381 238.196 157.652C238.158 157.734 238.026 157.692 238.061 157.606Z" fill="#263238"/>
<path d="M285.488 136.913C294.374 135.747 305.365 133.754 314.672 137.705C316.498 138.48 317.159 139.841 317.159 139.841C321.362 141.538 321.823 144.032 321.823 144.032C325.254 146.811 325.375 149.427 325.375 149.427C325.375 149.427 330.288 151.473 329.544 154.648C328.721 158.211 321.982 154.64 317.076 154.943C305.834 155.636 290.049 159.766 286.827 160.288L285.488 136.913Z" fill="#EB9481"/>
<path d="M304.786 147.39C308.098 147.252 311.348 147.03 314.662 147.341C318.298 147.682 321.739 148.621 325.267 149.489C325.377 149.516 325.426 149.366 325.322 149.322C319.185 146.74 311.317 146.062 304.778 147.24C304.619 147.268 304.619 147.397 304.786 147.39Z" fill="#263238"/>
<path d="M303.382 140.666C306.613 140.71 312.29 140.825 321.791 144.135C321.822 144.146 321.85 144.097 321.818 144.08C315.935 141.111 309.902 140.055 303.384 140.512C303.181 140.526 303.168 140.663 303.382 140.666Z" fill="#263238"/>
<path d="M302.692 137.038C308.182 137.323 311.608 138.197 317.13 139.857C317.161 139.866 317.186 139.815 317.153 139.801C311.075 137.256 308.581 137.021 302.675 136.849C302.473 136.842 302.478 137.027 302.692 137.038Z" fill="#263238"/>
<path d="M303.584 156.636C302.156 157.306 302.498 158.06 305.23 158.693C307.993 159.339 319.313 159.512 318.914 163.466C318.52 167.435 302.504 166.927 298.035 165.525C293.562 164.133 286.828 160.289 286.828 160.289C289.964 159.759 297.447 157.752 303.584 156.636Z" fill="#EB9481"/>
<path d="M229.404 152.615C229.335 154.323 229.167 156.062 228.927 157.786C228.95 157.724 228.977 157.663 229 157.601C229.333 156.701 229.657 155.778 230.061 154.908C230.082 154.862 230.163 154.875 230.153 154.931C229.977 155.875 229.646 156.823 229.286 157.714C229.114 158.139 228.939 158.564 228.755 158.985C228.631 159.753 228.493 160.516 228.338 161.267C228.043 162.697 226.692 168.78 226.385 169.808C226.32 170.024 226.063 169.975 226.079 169.733C226.153 168.613 227.286 162.278 227.515 160.844C227.955 158.09 228.56 155.28 229.297 152.589C229.314 152.525 229.406 152.555 229.404 152.615Z" fill="#263238"/>
<path d="M218.979 198.075C216.312 199.45 212.872 201.58 197.373 198.529C196.404 198.332 195.43 198.094 194.454 197.804C179.919 193.438 162.487 176.346 161.504 175.141C161.504 175.141 184.587 137.71 214.119 125.944C217.769 124.49 223.812 127.294 227.157 130.784C228.352 132.031 230.944 141.215 229.949 148.658C228.944 156.09 221.665 196.713 218.979 198.075Z" fill="#D9D9D9"/>
<path d="M216.916 148.316C217.001 149.12 216.937 149.903 216.839 150.681C216.722 151.457 216.569 152.228 216.267 152.978C216.181 152.174 216.245 151.391 216.344 150.613C216.462 149.837 216.615 149.066 216.916 148.316Z" fill="white"/>
<path d="M206.849 173.807C206.934 174.611 206.87 175.394 206.772 176.173C206.655 176.949 206.502 177.72 206.2 178.47C206.114 177.666 206.178 176.883 206.277 176.104C206.396 175.328 206.548 174.557 206.849 173.807Z" fill="white"/>
<path d="M189.736 154.542C189.821 155.346 189.757 156.129 189.659 156.907C189.542 157.683 189.389 158.454 189.087 159.204C189.001 158.4 189.065 157.617 189.164 156.838C189.283 156.063 189.436 155.292 189.736 154.542Z" fill="white"/>
<path d="M223.51 172.514C223.595 173.318 223.531 174.101 223.433 174.879C223.316 175.655 223.163 176.426 222.861 177.176C222.775 176.372 222.839 175.589 222.938 174.81C223.056 174.035 223.209 173.264 223.51 172.514Z" fill="white"/>
<path d="M201.535 151.235C202.339 151.15 203.122 151.214 203.901 151.312C204.677 151.429 205.448 151.582 206.198 151.884C205.394 151.97 204.611 151.906 203.832 151.807C203.056 151.689 202.286 151.536 201.535 151.235Z" fill="white"/>
<path d="M182.117 169.652C182.921 169.567 183.704 169.631 184.482 169.729C185.258 169.846 186.029 169.999 186.779 170.301C185.975 170.387 185.192 170.323 184.414 170.224C183.637 170.106 182.867 169.953 182.117 169.652Z" fill="white"/>
<path d="M204.965 189.584C205.769 189.499 206.552 189.563 207.33 189.661C208.106 189.778 208.877 189.931 209.627 190.233C208.823 190.319 208.04 190.255 207.262 190.156C206.486 190.038 205.715 189.885 204.965 189.584Z" fill="white"/>
<path d="M176.129 182.343C176.933 182.258 177.716 182.322 178.495 182.42C179.271 182.537 180.042 182.69 180.792 182.992C179.988 183.078 179.205 183.014 178.426 182.915C177.65 182.796 176.879 182.643 176.129 182.343Z" fill="white"/>
<path d="M216.77 130.401C217.574 130.316 218.357 130.38 219.136 130.478C219.912 130.595 220.682 130.748 221.432 131.05C220.628 131.136 219.845 131.072 219.067 130.973C218.291 130.854 217.52 130.701 216.77 130.401Z" fill="white"/>
<path d="M211.126 136.78C210.617 137.408 210.019 137.917 209.399 138.398C208.768 138.864 208.115 139.301 207.371 139.617C207.879 138.988 208.478 138.479 209.098 137.999C209.729 137.534 210.383 137.097 211.126 136.78Z" fill="white"/>
<path d="M180.329 154.906C179.82 155.534 179.222 156.043 178.602 156.524C177.971 156.99 177.318 157.427 176.574 157.744C177.082 157.115 177.681 156.606 178.301 156.126C178.933 155.66 179.586 155.224 180.329 154.906Z" fill="white"/>
<path d="M218.775 163.093C218.266 163.721 217.668 164.23 217.048 164.711C216.417 165.177 215.764 165.614 215.02 165.93C215.528 165.301 216.127 164.792 216.747 164.312C217.379 163.848 218.032 163.411 218.775 163.093Z" fill="white"/>
<path d="M193.88 178.771C193.371 179.399 192.773 179.908 192.153 180.389C191.522 180.855 190.869 181.292 190.125 181.608C190.633 180.979 191.232 180.47 191.852 179.99C192.483 179.526 193.136 179.089 193.88 178.771Z" fill="white"/>
<path d="M228.318 141.668C227.809 142.296 227.212 142.805 226.592 143.286C225.961 143.752 225.308 144.189 224.562 144.505C225.071 143.876 225.67 143.367 226.29 142.887C226.923 142.422 227.575 141.985 228.318 141.668Z" fill="white"/>
<path d="M227.794 159.841C227.166 159.332 226.657 158.734 226.176 158.114C225.71 157.483 225.273 156.83 224.957 156.086C225.586 156.594 226.095 157.193 226.575 157.813C227.039 158.445 227.476 159.098 227.794 159.841Z" fill="white"/>
<path d="M172.302 172.357C171.674 171.848 171.165 171.25 170.684 170.63C170.218 169.999 169.781 169.346 169.465 168.602C170.094 169.11 170.603 169.709 171.083 170.329C171.548 170.96 171.985 171.613 172.302 172.357Z" fill="white"/>
<path d="M221.049 187.255C220.421 186.746 219.912 186.148 219.431 185.528C218.965 184.897 218.528 184.244 218.211 183.5C218.84 184.008 219.349 184.607 219.829 185.227C220.295 185.858 220.731 186.512 221.049 187.255Z" fill="white"/>
<path d="M196.618 144.802C195.99 144.293 195.481 143.695 195 143.075C194.534 142.444 194.097 141.791 193.781 141.047C194.41 141.555 194.919 142.154 195.399 142.774C195.864 143.405 196.301 144.058 196.618 144.802Z" fill="white"/>
<path d="M197.052 195.732C196.424 195.223 195.915 194.625 195.434 194.005C194.968 193.374 194.531 192.721 194.215 191.977C194.844 192.485 195.353 193.084 195.833 193.704C196.297 194.335 196.734 194.988 197.052 195.732Z" fill="white"/>
<path d="M201.204 165.689C200.576 165.18 200.067 164.582 199.586 163.962C199.12 163.331 198.683 162.678 198.367 161.934C198.996 162.442 199.505 163.041 199.985 163.661C200.45 164.292 200.887 164.945 201.204 165.689Z" fill="white"/>
<path d="M221.729 140.748C217.966 140.048 214.419 132.259 213.973 127.019C213.944 126.66 215.735 123.807 217.746 120.237C218.958 118.066 220.257 115.62 221.281 113.303C221.489 112.826 222.722 114.416 222.722 114.416L225.401 116.465L234.256 123.255C234.256 123.255 230.681 127.482 228.921 131.533C228.778 131.873 228.672 132.202 228.601 132.528C228.587 132.574 228.576 132.632 228.553 132.695C228.048 134.632 225.366 141.422 221.729 140.748Z" fill="#EB9481"/>
<path d="M228.6 132.529C228.586 132.575 228.575 132.633 228.552 132.696C228.068 132.56 227.561 132.367 227.023 132.115C217.332 127.573 221.607 114.589 221.607 114.589L225.401 116.466L234.256 123.256C234.256 123.256 230.681 127.483 228.921 131.534C228.777 131.874 228.672 132.203 228.6 132.529Z" fill="#263238"/>
<path d="M244.422 95.5806C244.422 95.5806 248.849 98.3926 248.878 103.391C248.907 108.39 246.916 113.28 246.454 113.455C245.992 113.63 244.422 95.5806 244.422 95.5806Z" fill="#263238"/>
<path d="M222.446 98.1746C219.784 103.43 219.918 119.976 223.243 124.24C228.062 130.421 237.346 132.551 242.949 126.44C248.381 120.516 247.824 98.9556 243.981 94.9376C238.321 89.0196 226.379 90.4126 222.446 98.1746Z" fill="#EB9481"/>
<path d="M236.564 111.432C236.554 111.389 236.477 111.487 236.48 111.534C236.542 112.661 236.423 113.962 235.411 114.36C235.38 114.372 235.384 114.429 235.422 114.423C236.662 114.218 236.803 112.489 236.564 111.432Z" fill="#263238"/>
<path d="M235.531 110.277C233.714 110.181 233.657 113.822 235.34 113.911C236.997 113.998 237.054 110.357 235.531 110.277Z" fill="#263238"/>
<path d="M242.735 111.39C242.744 111.347 242.822 111.445 242.82 111.491C242.766 112.618 242.895 113.918 243.909 114.309C243.941 114.321 243.936 114.378 243.899 114.372C242.657 114.176 242.503 112.449 242.735 111.39Z" fill="#263238"/>
<path d="M243.762 110.227C245.578 110.118 245.662 113.759 243.98 113.86C242.324 113.96 242.239 110.318 243.762 110.227Z" fill="#263238"/>
<path d="M234.392 107.506C234.89 107.389 235.33 107.198 235.81 107.032C236.352 106.844 236.803 106.75 237.164 106.273C237.357 106.017 237.286 105.551 237.055 105.339C236.516 104.847 235.796 104.912 235.134 105.112C234.416 105.329 233.918 105.679 233.499 106.299C233.091 106.9 233.735 107.66 234.392 107.506Z" fill="#263238"/>
<path d="M245.024 109.12C244.521 109.03 244.071 108.863 243.583 108.722C243.032 108.563 242.576 108.493 242.191 108.035C241.984 107.789 242.031 107.32 242.25 107.097C242.761 106.577 243.485 106.604 244.156 106.768C244.885 106.946 245.401 107.27 245.852 107.867C246.29 108.445 245.688 109.239 245.024 109.12Z" fill="#263238"/>
<path d="M233.998 122.117C234.264 122.385 234.528 122.753 234.936 122.794C235.328 122.833 235.791 122.663 236.153 122.529C236.189 122.516 236.224 122.554 236.201 122.588C235.901 123.016 235.281 123.277 234.76 123.178C234.251 123.081 234.006 122.636 233.889 122.167C233.873 122.101 233.959 122.078 233.998 122.117Z" fill="#263238"/>
<path d="M240.546 117.296C240.546 117.296 240.594 118.984 240.509 119.768C240.501 119.841 238.289 119.408 235.905 119.933C235.548 120.012 235.583 119.721 235.995 119.531C236.82 119.15 237.868 118.793 239.908 119.012C239.987 118.801 239.786 116.415 239.911 116.419C240.344 116.429 241.157 116.813 241.648 117.017C241.65 113.498 241.088 110.008 241.143 106.504C241.147 106.379 241.329 106.361 241.353 106.476C242.201 110.093 242.287 114.142 242.379 117.776C242.396 118.229 240.846 117.464 240.546 117.296Z" fill="#263238"/>
<path d="M238.297 119.168C238.297 119.168 237.511 121.146 236.197 121.677C234.685 122.289 234.167 120.92 235.71 119.711C236.519 119.077 238.297 119.168 238.297 119.168Z" fill="#263238"/>
<path d="M236.723 121.369C236.553 121.499 236.383 121.609 236.193 121.679C234.803 122.239 234.253 121.129 235.373 120.009C236.134 120.069 236.963 120.349 236.723 121.369Z" fill="#FF99BA"/>
<path d="M221.679 112.331C223.507 112.892 225.611 107.393 226.206 105.279C226.73 103.416 227.335 97.5048 227.424 97.1018C227.513 96.6988 235.396 102.332 240.005 100.985C244.614 99.6378 247.694 95.5018 247.758 93.5708C247.821 91.6408 242.099 86.7398 237.147 86.4888C232.195 86.2378 225.492 92.5318 225.492 92.5318C225.492 92.5318 227.769 89.8128 227.692 89.5898C227.615 89.3668 224.415 90.6448 223.827 92.9238C223.827 92.9238 224.46 90.0628 224.218 90.0098C223.976 89.9568 221.49 92.4068 222.051 94.2638C222.051 94.2638 219.175 96.7548 218.909 99.4858C218.642 102.218 219.531 111.672 221.679 112.331Z" fill="#263238"/>
<path d="M243.279 100.023C241.878 100.668 240.474 101.377 238.925 101.581C237.251 101.802 235.514 101.382 233.956 100.784C232.362 100.174 230.914 99.2876 229.598 98.2046C228.445 97.2556 227.423 96.1106 226.192 95.2656C225.884 95.0546 225.527 95.4976 225.717 95.7816C227.586 98.5856 230.893 100.927 234.08 101.938C237.433 103.001 240.585 102.253 243.297 100.06C243.313 100.046 243.302 100.012 243.279 100.023Z" fill="#263238"/>
<path d="M223.594 111.841C223.594 111.841 220.756 106.079 218.196 107.013C215.636 107.947 217.212 115.909 219.824 117.367C222.437 118.825 223.833 116.433 223.833 116.433L223.594 111.841Z" fill="#EB9481"/>
<path d="M218.705 109.285C218.661 109.274 218.643 109.335 218.679 109.357C220.501 110.443 221.247 112.402 221.676 114.381C221.209 113.573 220.482 113.058 219.413 113.598C219.357 113.626 219.393 113.713 219.45 113.71C220.272 113.662 220.825 113.888 221.265 114.608C221.576 115.118 221.749 115.729 221.941 116.292C222.005 116.48 222.333 116.435 222.298 116.225C222.295 116.209 222.292 116.193 222.289 116.177C222.719 113.706 221.327 109.943 218.705 109.285Z" fill="#263238"/>
<path d="M204.837 137.558C202.882 148.886 215.113 187.058 222.988 194.188C234.699 204.791 256.352 211.763 264.198 214.031C267.617 215.02 277.078 190.957 273.619 189.372C266.209 185.978 243.189 178.798 241.022 176.954C238.855 175.11 225.627 156.078 219.746 145.102C211.857 130.375 205.826 131.828 204.837 137.558Z" fill="#EB9481"/>
<path d="M267.793 187.254C267.793 187.254 278.003 189.856 284.6 191.872C288.281 192.996 294.419 195.487 296.745 197.55C300.224 200.636 312.805 215.763 309.203 218.893C305.942 221.726 296.784 207.357 296.784 207.357C296.784 207.357 307.307 221.039 302.754 223.728C298.201 226.417 290.013 208.806 290.013 208.806C290.013 208.806 300.509 223.106 295.375 225.137C291.495 226.671 283.181 211.139 283.181 211.139C283.181 211.139 292.117 223.493 288.195 225.243C283.861 227.177 275.286 213.321 275.286 213.321C264.568 216.09 258.332 213.025 254.155 210.316C253.144 209.658 267.793 187.254 267.793 187.254Z" fill="#EB9481"/>
<path d="M293.451 202.391C294.745 203.953 296.066 205.526 297.217 207.198C298.368 208.87 299.462 210.584 300.452 212.356C302.88 216.702 303.722 219.803 303.649 219.617C301.927 215.221 297.899 209.171 296.748 207.498C295.599 205.829 294.535 204.103 293.387 202.432C293.357 202.39 293.42 202.354 293.451 202.391Z" fill="#263238"/>
<path d="M287.336 206.437C289.554 208.195 294.207 214.742 296.002 219.128C296.077 219.312 295.978 219.297 295.869 219.13C294.463 216.963 288.786 208.56 287.284 206.471C287.261 206.438 287.306 206.413 287.336 206.437Z" fill="#263238"/>
<path d="M281.465 208.967C284.033 211.509 286.189 214.979 287.885 218.99C287.962 219.171 287.817 219.143 287.711 218.972C285.64 215.6 284.039 212.94 281.359 209.056C281.317 208.995 281.405 208.908 281.465 208.967Z" fill="#263238"/>
<path d="M215.968 138.391C206.837 125.477 201.381 130.264 203.212 144.281C204.924 157.39 209.519 173.007 209.519 173.007L232.56 161.847C232.56 161.847 221.811 146.656 215.968 138.391Z" fill="#D9D9D9"/>
<path d="M221.545 143.469C221.871 144.209 222.05 144.974 222.193 145.745C222.318 146.52 222.408 147.3 222.349 148.107C222.022 147.367 221.843 146.602 221.701 145.831C221.577 145.055 221.488 144.275 221.545 143.469Z" fill="white"/>
<path d="M207.914 151.32C208.654 150.994 209.419 150.816 210.19 150.672C210.965 150.547 211.745 150.457 212.552 150.516C211.812 150.843 211.047 151.022 210.276 151.164C209.501 151.288 208.72 151.377 207.914 151.32Z" fill="white"/>
<path d="M208.508 131.239C208.215 131.993 207.801 132.66 207.357 133.307C206.898 133.943 206.409 134.559 205.797 135.087C206.089 134.333 206.504 133.665 206.948 133.019C207.408 132.383 207.897 131.768 208.508 131.239Z" fill="white"/>
<path d="M227.948 157.351C227.655 158.104 227.241 158.772 226.797 159.419C226.338 160.055 225.85 160.671 225.238 161.199C225.53 160.445 225.944 159.777 226.389 159.131C226.849 158.496 227.338 157.88 227.948 157.351Z" fill="white"/>
<path d="M212.008 165.184C211.254 164.891 210.587 164.477 209.94 164.033C209.304 163.574 208.688 163.085 208.16 162.474C208.914 162.766 209.581 163.18 210.228 163.625C210.864 164.084 211.479 164.573 212.008 165.184Z" fill="white"/>
<path d="M219.031 142.278C220.257 143.965 221.528 145.619 222.794 147.276C222.473 146.438 222.195 145.591 221.947 144.726C221.936 144.686 221.993 144.669 222.008 144.707C222.264 145.37 222.548 146.024 222.793 146.691C222.911 147.012 223.031 147.331 223.154 147.65C223.181 147.719 223.208 147.787 223.235 147.855C224.22 149.148 225.201 150.444 226.149 151.763C227.28 153.338 228.372 154.94 229.469 156.539C230.602 158.191 231.677 160.128 232.874 161.734C232.978 161.873 230.835 162.739 230.635 162.85C230.43 162.964 230.291 162.765 230.509 162.699C230.71 162.638 232.407 161.595 232.428 161.574C231.332 159.962 230.058 158.471 228.91 156.895C227.768 155.326 226.621 153.761 225.513 152.168C223.263 148.932 221.197 145.57 218.964 142.32C218.935 142.279 219.001 142.237 219.031 142.278Z" fill="#263238"/>
<path d="M203.777 153.555C204.127 154.237 204.504 154.912 204.814 155.613C204.942 155.903 205.068 156.193 205.196 156.483C204.671 153.987 204.156 151.489 203.645 148.989C203.639 148.96 203.683 148.945 203.691 148.975C204.747 153.022 205.814 157.065 206.794 161.131C207.729 165.007 208.858 168.931 209.393 172.886C209.712 172.781 211.505 172.039 211.557 172.155C211.609 172.272 209.213 173.4 209.181 173.306C207.877 169.441 207.069 165.051 206.182 161.073C205.932 159.953 205.699 158.83 205.46 157.707C205.2 157.031 204.885 156.38 204.578 155.723C204.253 155.028 203.991 154.3 203.706 153.588C203.689 153.547 203.756 153.515 203.777 153.555Z" fill="#263238"/>
<path d="M209.882 169.154C213.083 167.349 226.457 160.426 229.449 159.121C229.656 159.03 229.765 159.137 229.561 159.258C220.102 164.894 213.19 167.66 209.958 169.275C209.878 169.315 209.801 169.2 209.882 169.154Z" fill="#263238"/>
<path d="M576.316 432.051H271.637L315.693 182.2H620.371L576.316 432.051Z" fill="#D9D9D9"/>
<path d="M419.967 156.325H320.253L315.691 182.2H422.402L419.967 156.325Z" fill="#D9D9D9"/>
<g opacity="0.1">
<path d="M576.316 432.051H271.637L315.693 182.2H620.371L576.316 432.051Z" fill="black"/>
<path d="M419.967 156.325H320.253L315.691 182.2H422.402L419.967 156.325Z" fill="black"/>
</g>
<path d="M309.5 166.88C309.106 165.43 309.017 163.979 309 162.529C309.014 161.078 309.103 159.628 309.5 158.178C309.896 159.628 309.985 161.079 310 162.529C309.983 163.98 309.894 165.43 309.5 166.88Z" fill="#263238"/>
<path d="M300.636 169.443C299.569 168.384 298.767 167.172 298.028 165.925C297.315 164.662 296.667 163.361 296.285 161.907C297.354 162.965 298.156 164.177 298.893 165.425C299.604 166.689 300.253 167.99 300.636 169.443Z" fill="#263238"/>
<path d="M294.247 176.092C292.794 175.708 291.493 175.06 290.229 174.349C288.98 173.611 287.768 172.809 286.711 171.741C288.165 172.123 289.466 172.771 290.729 173.484C291.976 174.224 293.188 175.025 294.247 176.092Z" fill="#263238"/>
<path d="M292.034 185.047C290.584 185.441 289.133 185.53 287.683 185.547C286.233 185.532 284.782 185.444 283.332 185.047C284.782 184.651 286.233 184.562 287.683 184.547C289.133 184.564 290.583 184.653 292.034 185.047Z" fill="#263238"/>
<path d="M294.595 193.908C293.536 194.975 292.324 195.777 291.077 196.516C289.814 197.229 288.513 197.877 287.059 198.259C288.117 197.191 289.329 196.389 290.577 195.651C291.841 194.94 293.142 194.291 294.595 193.908Z" fill="#263238"/>
<path d="M301.246 200.3C300.862 201.753 300.214 203.054 299.503 204.318C298.765 205.567 297.963 206.779 296.895 207.836C297.277 206.382 297.925 205.081 298.638 203.818C299.377 202.571 300.179 201.359 301.246 200.3Z" fill="#263238"/>
<path d="M310.199 202.511C310.593 203.962 310.682 205.412 310.699 206.862C310.684 208.312 310.596 209.763 310.199 211.213C309.802 209.763 309.714 208.312 309.699 206.862C309.716 205.412 309.805 203.962 310.199 202.511Z" fill="#263238"/>
<path d="M319.062 199.949C320.13 201.008 320.931 202.22 321.671 203.467C322.384 204.73 323.032 206.031 323.414 207.485C322.345 206.427 321.544 205.215 320.806 203.967C320.095 202.702 319.447 201.402 319.062 199.949Z" fill="#263238"/>
<path d="M325.453 193.299C326.906 193.683 328.207 194.331 329.471 195.042C330.72 195.78 331.932 196.582 332.989 197.65C331.535 197.268 330.234 196.62 328.971 195.907C327.724 195.168 326.512 194.366 325.453 193.299Z" fill="#263238"/>
<path d="M327.664 184.344C329.114 183.95 330.565 183.861 332.015 183.844C333.465 183.859 334.916 183.947 336.366 184.344C334.915 184.74 333.465 184.829 332.015 184.844C330.564 184.827 329.114 184.739 327.664 184.344Z" fill="#263238"/>
<path d="M325.102 175.484C326.161 174.417 327.373 173.615 328.62 172.876C329.883 172.164 331.184 171.515 332.638 171.133C331.58 172.201 330.368 173.003 329.12 173.741C327.856 174.452 326.555 175.1 325.102 175.484Z" fill="#263238"/>
<path d="M318.453 169.092C318.837 167.639 319.485 166.338 320.196 165.074C320.934 163.825 321.736 162.613 322.804 161.556C322.422 163.01 321.774 164.311 321.061 165.574C320.321 166.821 319.519 168.033 318.453 169.092Z" fill="#263238"/>
<path d="M575.87 432.051H270.535L227.184 191.27H532.519L575.87 432.051Z" fill="#D9D9D9"/>
<path d="M332.988 338.462C339.997 338.462 345.679 332.78 345.679 325.771C345.679 318.762 339.997 313.08 332.988 313.08C325.979 313.08 320.297 318.762 320.297 325.771C320.297 332.78 325.979 338.462 332.988 338.462Z" fill="#263238"/>
<path d="M433.312 338.462C440.321 338.462 446.003 332.78 446.003 325.771C446.003 318.762 440.321 313.08 433.312 313.08C426.303 313.08 420.621 318.762 420.621 325.771C420.621 332.78 426.303 338.462 433.312 338.462Z" fill="#263238"/>
<path d="M401.379 340.488L400.683 339.159C400.619 339.039 394.064 326.921 380.872 326.921C368.841 326.921 365.908 338.331 365.789 338.816L365.433 340.27L362.523 339.567L362.873 338.112C362.907 337.97 366.448 323.921 380.872 323.921C395.909 323.921 403.044 337.201 403.34 337.767L404.037 339.095L401.379 340.488Z" fill="#263238"/>
<path d="M555.605 324.314C556.256 324.174 556.906 324.021 557.552 323.856" stroke="#263238" stroke-miterlimit="10"/>
<path d="M561.392 322.719C576.688 317.554 589.498 305.521 590.703 291.463C593.36 260.463 555.606 243.339 559.506 207.517C563.226 173.346 599.068 170.908 613.436 175.631C629.305 180.848 623.868 196.101 609.5 194.133C584.59 190.721 568.932 163.64 580.763 132.92C589.602 109.969 611.636 101.313 620.587 98.6729" stroke="#263238" stroke-miterlimit="10" stroke-dasharray="4 4"/>
<path d="M622.512 98.139C623.751 97.82 624.456 97.687 624.456 97.687" stroke="#263238" stroke-miterlimit="10"/>
<path d="M640.317 92.164C637.765 84.26 620.685 87.1 624.02 97.426C627.354 107.753 642.869 100.068 640.317 92.164Z" fill="#263238"/>
<path d="M614.729 88.9772C614.856 85.5112 619.679 82.8442 626.495 84.0742C633.311 85.3052 639.731 89.8962 639.731 89.8962C639.731 89.8962 632.991 94.0192 626.103 94.7462C619.214 95.4742 614.601 92.4602 614.729 88.9772Z" fill="#EBEBEB"/>
<path d="M639.729 89.8964C636.19 89.9204 632.656 89.8024 629.121 89.6944C625.588 89.5434 622.055 89.4034 618.527 89.1174C622.066 89.0914 625.6 89.2114 629.135 89.3194C632.668 89.4714 636.201 89.6124 639.729 89.8964Z" fill="#263238"/>
<path d="M621.578 85.9082C622.602 86.3662 623.549 86.9472 624.502 87.5172C625.432 88.1252 626.369 88.7232 627.228 89.4442C626.204 88.9872 625.257 88.4062 624.304 87.8342C623.373 87.2272 622.438 86.6292 621.578 85.9082Z" fill="#263238"/>
<path d="M630.844 89.5703C629.948 90.3313 628.974 90.9703 628.006 91.6193C627.014 92.2313 626.029 92.8543 624.965 93.3533C625.861 92.5923 626.835 91.9523 627.803 91.3043C628.794 90.6923 629.78 90.0713 630.844 89.5703Z" fill="#263238"/>
<path d="M631.871 87.6182C632.399 87.8452 632.837 88.1842 633.281 88.5152C633.698 88.8792 634.123 89.2342 634.456 89.7032C633.927 89.4772 633.49 89.1372 633.046 88.8062C632.629 88.4412 632.205 88.0852 631.871 87.6182Z" fill="#263238"/>
<path d="M621.222 109.55C623.353 112.287 628.824 111.63 633.634 106.646C638.443 101.661 640.967 94.1831 640.967 94.1831C640.967 94.1831 633.088 94.7801 627.076 98.2191C621.062 101.657 619.081 106.8 621.222 109.55Z" fill="#EBEBEB"/>
<path d="M640.965 94.1821C638.08 96.2321 635.283 98.3951 632.479 100.55C629.702 102.739 626.917 104.919 624.223 107.213C627.109 105.164 629.906 103 632.709 100.845C635.486 98.6561 638.27 96.4761 640.965 94.1821Z" fill="#263238"/>
<path d="M628.574 108.032C629.136 107.061 629.565 106.037 630.005 105.016C630.404 103.979 630.814 102.946 631.089 101.859C630.526 102.829 630.097 103.854 629.658 104.875C629.259 105.912 628.85 106.945 628.574 108.032Z" fill="#263238"/>
<path d="M633.947 99.6443C632.775 99.5513 631.611 99.6023 630.446 99.6413C629.284 99.7243 628.12 99.7963 626.965 100.013C628.137 100.107 629.301 100.056 630.466 100.016C631.628 99.9323 632.791 99.8593 633.947 99.6443Z" fill="#263238"/>
<path d="M635.926 100.625C636.221 100.132 636.378 99.6014 636.546 99.0734C636.671 98.5334 636.808 97.9974 636.804 97.4224C636.507 97.9154 636.351 98.4464 636.184 98.9744C636.059 99.5144 635.923 100.051 635.926 100.625Z" fill="#263238"/>
<path d="M640.316 92.1644C638.741 92.6724 637.052 91.8084 636.544 90.2334C636.036 88.6584 636.9 86.9704 638.474 86.4614C640.048 85.9524 641.738 86.8174 642.246 88.3924C642.755 89.9674 641.891 91.6564 640.316 92.1644Z" fill="#455A64"/>
<path d="M642.156 97.8671C640.581 98.3751 638.893 97.5111 638.384 95.9361C637.875 94.3611 638.74 92.6731 640.315 92.1641C641.89 91.6561 643.578 92.5201 644.087 94.0951C644.595 95.6691 643.731 97.3581 642.156 97.8671Z" fill="#455A64"/>
<path d="M314.314 95.321C312.882 109.01 300.618 118.951 286.93 117.519C281.398 116.94 276.48 114.592 272.672 111.085L260.203 112.915L266.442 102.135C264.928 98.452 264.291 94.353 264.732 90.134C266.164 76.445 278.428 66.504 292.116 67.936C305.804 69.368 315.745 81.632 314.314 95.321Z" fill="white"/>
<path d="M314.313 95.3211C313.792 99.8711 312.129 104.331 309.283 107.955C308.629 108.904 307.787 109.697 307.024 110.556C306.158 111.31 305.35 112.138 304.394 112.783C302.571 114.187 300.522 115.288 298.382 116.131C296.251 117.028 293.958 117.456 291.672 117.731C290.519 117.793 289.364 117.898 288.209 117.797C287.052 117.771 285.899 117.647 284.76 117.438C280.199 116.612 275.879 114.477 272.429 111.35L272.724 111.441L260.267 113.353L259.363 113.492L259.821 112.695L266.023 101.894L265.994 102.32C262.973 95.2061 263.654 86.7341 267.529 80.1051C269.461 76.7861 272.155 73.9261 275.335 71.7931C278.513 69.6541 282.199 68.3131 285.972 67.8021C289.749 67.3011 293.636 67.6451 297.243 68.8431C300.845 70.0561 304.148 72.0961 306.855 74.7371C312.356 79.9681 315.122 87.8161 314.313 95.3211ZM314.313 95.3211C315.071 87.8101 312.25 80.0101 306.745 74.8491C304.012 72.2681 300.703 70.3131 297.133 69.1781C293.557 68.0591 289.732 67.7921 286.048 68.3471C282.367 68.9121 278.802 70.2831 275.754 72.4131C272.714 74.5481 270.149 77.3401 268.297 80.5471C266.408 83.7471 265.43 87.4131 265.134 91.0931C264.901 94.7851 265.503 98.5221 266.888 101.951L266.978 102.174L266.859 102.378L260.584 113.136L260.138 112.478L272.619 110.73L272.791 110.706L272.914 110.821C276.213 113.918 280.388 116.08 284.849 116.969C285.963 117.194 287.093 117.335 288.23 117.38C289.365 117.5 290.502 117.416 291.641 117.375C293.898 117.143 296.173 116.761 298.298 115.909C300.431 115.11 302.493 114.063 304.31 112.669C305.266 112.034 306.074 111.217 306.942 110.472C307.707 109.623 308.552 108.839 309.209 107.898C312.068 104.306 313.761 99.8681 314.313 95.3211Z" fill="#263238"/>
<path d="M277.336 104.349C277.336 102.861 278.369 101.786 279.774 101.786C281.262 101.786 282.213 102.861 282.213 104.349C282.213 105.796 281.262 106.911 279.774 106.911C278.328 106.911 277.336 105.795 277.336 104.349ZM278.369 98.4381L277.79 78.5991H281.758L281.179 98.4381H278.369Z" fill="#D9D9D9"/>
<path d="M286.844 104.349C286.844 102.861 287.877 101.786 289.283 101.786C290.771 101.786 291.722 102.861 291.722 104.349C291.722 105.796 290.771 106.911 289.283 106.911C287.836 106.911 286.844 105.795 286.844 104.349ZM287.877 98.4381L287.299 78.5991H291.267L290.689 98.4381H287.877Z" fill="#D9D9D9"/>
<path d="M296.352 104.349C296.352 102.861 297.385 101.786 298.791 101.786C300.279 101.786 301.229 102.861 301.229 104.349C301.229 105.796 300.278 106.911 298.791 106.911C297.344 106.911 296.352 105.795 296.352 104.349ZM297.386 98.4381L296.807 78.5991H300.775L300.197 98.4381H297.386Z" fill="#D9D9D9"/>
</svg>
